#N canvas 829 191 515 385 10;
#N canvas 911 623 779 469 master 0;
#X msg 18 219 \$1 50;
#X obj 18 276 line~;
#X msg 93 197 \$1 50;
#X obj 62 246 line~;
#X obj 99 135 swap 1;
#X obj 99 157 -;
#X obj 221 22 loadbang;
#X msg 210 137 1;
#X obj 10 10 cnv 15 75 170 empty empty Master 8 12 0 14 -228856 -66577
0;
#X obj 55 154 tgl 20 0 empty empty MUTE 0 -7 0 10 -258113 -1 -1 0 1
;
#X obj 18 38 tgl 20 0 empty empty DSP_ON 25 7 0 10 -4034 -1 -1 0 1
;
#X obj 40 71 vsl 15 100 0 1 0 0 empty vol1 Vol 25 7 0 10 -257985 -1
-1 0 1;
#X obj 246 71 key;
#X obj 246 93 sel 32;
#X obj 246 115 f;
#X obj 276 115 + 1;
#X obj 246 137 mod 2;
#X text 245 53 panic;
#X obj 159 289 *~;
#X obj 159 335 clip~ -1 1;
#X obj 159 313 hip~ 5;
#X obj 159 263 *~;
#X msg 99 58 \; pd dsp \$1 \; heart_toggle \$1;
#X obj 237 260 s~ to_Oscilloscope;
#X obj 16 72 vsl 15 100 0 1 0 0 empty vol0 Vol 25 7 0 10 -257985 -1
-1 8400 1;
#X obj 161 220 catch~ mix0;
#X obj 434 282 line~;
#X obj 413 326 *~;
#X obj 395 194 catch~ mix1;
#X obj 514 379 clip~ -1 1;
#X obj 514 357 hip~ 5;
#X msg 436 224 \$1 50;
#X obj 301 357 line~;
#X obj 449 395 *~;
#X obj 186 373 *~;
#X obj 281 424 dac~;
#X obj 306 290 loadbang;
#X msg 304 321 3;
#X connect 0 0 1 0;
#X connect 1 0 18 1;
#X connect 2 0 3 0;
#X connect 3 0 21 1;
#X connect 4 0 5 0;
#X connect 4 1 5 1;
#X connect 5 0 2 0;
#X connect 6 0 7 0;
#X connect 7 0 9 0;
#X connect 9 0 4 0;
#X connect 10 0 22 0;
#X connect 11 0 0 0;
#X connect 12 0 13 0;
#X connect 13 0 14 0;
#X connect 14 0 15 0;
#X connect 14 0 16 0;
#X connect 15 0 14 1;
#X connect 16 0 9 0;
#X connect 18 0 20 0;
#X connect 19 0 34 0;
#X connect 20 0 19 0;
#X connect 21 0 18 0;
#X connect 24 0 31 0;
#X connect 25 0 21 0;
#X connect 25 0 23 0;
#X connect 26 0 27 1;
#X connect 27 0 30 0;
#X connect 28 0 27 0;
#X connect 28 0 23 0;
#X connect 29 0 33 1;
#X connect 30 0 29 0;
#X connect 31 0 26 0;
#X connect 32 0 33 0;
#X connect 32 0 34 1;
#X connect 33 0 35 1;
#X connect 33 0 35 0;
#X connect 36 0 37 0;
#X connect 37 0 32 0;
#X coords 0 -1 1 1 75 190 2 10 10;
#X restore 168 -3 pd master;
#N canvas 158 302 378 242 recording 0;
#X obj 10 10 cnv 15 75 170 empty empty Record 8 12 0 14 -228856 -66577
0;
#X obj 17 70 bng 20 250 50 0 empty empty START 25 7 0 10 -4034 -1 -1
;
#X obj 16 107 bng 20 250 50 0 empty empty STOP 25 7 0 10 -258113 -1
-1;
#X obj 16 142 bng 20 250 50 0 empty empty RESET 25 7 0 10 -257985 -1
-1;
#X coords 0 -1 1 1 75 170 2 10 10;
#X restore 248 -3 pd recording;
#N canvas 709 558 1088 488 main 0;
#X obj 369 71 onebeat 63 5 0 0.65;
#X obj 546 71 murmur 0.3 50 0.5;
#X obj 686 72 onebeat 42 3 0.5 1;
#X obj 193 176 tgl 15 0 empty heart_toggle empty 17 7 0 10 -262144
-1 -1 0 1;
#N canvas 1260 423 496 620 master 0;
#X obj 13 206 bng 15 250 50 0 empty empty empty 17 7 0 10 -262144 -1
-1;
#X obj 13 226 t b b;
#X obj 83 243 delay 100;
#X floatatom 153 49 5 0 0 1 BPM - -, f 5;
#X obj 153 70 swap 60000;
#X obj 153 95 /;
#X obj 13 156 tgl 15 0 empty empty empty 17 7 0 10 -262144 -1 -1 0
1;
#X obj 13 178 metro;
#X floatatom 153 117 5 0 0 1 ms - -, f 5;
#X obj 153 183 / 100;
#X floatatom 153 227 5 0 0 1 35%_time_fraction - -, f 5;
#X obj 153 205 * 35;
#X obj 153 161 line;
#X msg 153 138 \$1 4000;
#X obj 153 14 inlet BPM;
#X obj 13 14 inlet toggle;
#X obj 13 306 s trigger1_0;
#X obj 106 308 s trigger2_0;
#X obj 200 306 outlet delay;
#X connect 0 0 1 0;
#X connect 1 0 16 0;
#X connect 1 1 2 0;
#X connect 2 0 17 0;
#X connect 3 0 4 0;
#X connect 4 0 5 0;
#X connect 4 1 5 1;
#X connect 5 0 8 0;
#X connect 6 0 7 0;
#X connect 7 0 0 0;
#X connect 8 0 13 0;
#X connect 9 0 11 0;
#X connect 10 0 2 1;
#X connect 10 0 18 0;
#X connect 11 0 10 0;
#X connect 12 0 7 1;
#X connect 12 0 9 0;
#X connect 13 0 12 0;
#X connect 14 0 3 0;
#X connect 15 0 6 0;
#X restore 236 179 pd master;
#X obj 211 116 loadbang;
#X msg 211 138 60;
#X obj 10 10 cnv 20 170 170 empty empty LovelyHeart 8 12 0 14 -261234
-66577 0;
#X obj 193 30 r~ to_Oscilloscope;
#X obj 29 47 oscilloscope;
#X obj 28 158 hsl 100 15 50 180 0 0 empty cBPM0 BPM -2 8 0 10 -228856
-1 -1 9562 1;
#X floatatom 143 156 5 0 0 0 - - -, f 5;
#N canvas 648 30 417 521 LICENSE 0;
#X text 20 75 This program is free software: you can redistribute it
and/or modify it under the terms of the GNU General Public License
as published by the Free Software Foundation \, either version 3 of
the License \, or (at your option) any later version.;
#X text 20 158 This program is distributed in the hope that it will
be useful \, but WITHOUT ANY WARRANTY \; without even the implied warranty
of MERCHANTABILITY or FITNESS FOR A PARTICULAR PURPOSE. See the GNU
General Public License for more details.;
#X text 20 244 You should have received a copy of the GNU General Public
License along with this program. If not \, see <http://www.gnu.org/licenses/>.
;
#X obj 25 302 loadbang;
#X msg 56 417 This program comes with ABSOLUTELY NO WARRANTY \;;
#X msg 25 470 For details see "LICENSE" file.;
#X obj 25 329 bng 15 250 50 0 empty empty empty 17 7 0 10 -262144 -1
-1;
#X obj 25 492 print;
#X msg 40 437 This is free software \, and you are welcome to redistribute
it under certain conditions \;;
#X msg 72 396 Contact me: nicola@limulo.net \;;
#X obj 25 351 t b b b b b;
#X text 20 47 Copyright (C) 2016 Nicola Ariutti;
#X text 20 9 LovelyHeart: Heartbeat sound synthetizer;
#X msg 88 376 LovelyHeart Copyright (C) 2016 Nicola Ariutti \;;
#X connect 3 0 6 0;
#X connect 4 0 7 0;
#X connect 5 0 7 0;
#X connect 6 0 10 0;
#X connect 8 0 7 0;
#X connect 9 0 7 0;
#X connect 10 0 5 0;
#X connect 10 1 8 0;
#X connect 10 2 4 0;
#X connect 10 3 9 0;
#X connect 10 4 13 0;
#X connect 13 0 7 0;
#X restore 10 258 pd LICENSE;
#N canvas 1253 315 413 274 MIDI 0;
#X obj 15 102 / 127;
#X floatatom 15 81 5 0 0 0 - - -, f 5;
#X text 14 8 MIDI controls;
#X text 14 36 BPM control;
#X obj 15 59 ctlin 1;
#X obj 15 171 + 50;
#X obj 15 150 * 130;
#X obj 93 102 / 127;
#X floatatom 93 81 5 0 0 0 - - -, f 5;
#X obj 93 171 + 50;
#X obj 93 150 * 130;
#X obj 93 59 ctlin 2;
#X obj 15 194 s cBPM0;
#X obj 93 227 s cBPM1;
#X obj 179 104 / 127;
#X floatatom 179 83 5 0 0 0 - - -, f 5;
#X obj 257 104 / 127;
#X floatatom 257 83 5 0 0 0 - - -, f 5;
#X obj 179 61 ctlin 3;
#X obj 257 61 ctlin 4;
#X obj 180 141 s vol0;
#X obj 258 144 s vol1;
#X floatatom 95 202 5 0 0 0 - - -, f 5;
#X connect 0 0 6 0;
#X connect 1 0 0 0;
#X connect 4 0 1 0;
#X connect 5 0 12 0;
#X connect 6 0 5 0;
#X connect 7 0 10 0;
#X connect 8 0 7 0;
#X connect 9 0 22 0;
#X connect 10 0 9 0;
#X connect 11 0 8 0;
#X connect 14 0 20 0;
#X connect 15 0 14 0;
#X connect 16 0 21 0;
#X connect 17 0 16 0;
#X connect 18 0 15 0;
#X connect 19 0 17 0;
#X connect 22 0 13 0;
#X restore 10 236 pd MIDI;
#X obj 30 188 hsl 100 15 50 180 0 0 empty cBPM1 BPM -2 8 0 10 -228856
-1 -1 2806 1;
#N canvas 192 149 449 437 master2 0;
#X obj 13 206 bng 15 250 50 0 empty empty empty 17 7 0 10 -262144 -1
-1;
#X obj 13 226 t b b;
#X obj 83 243 delay 100;
#X floatatom 153 49 5 0 0 1 BPM - -, f 5;
#X obj 153 70 swap 60000;
#X obj 153 95 /;
#X obj 13 156 tgl 15 0 empty empty empty 17 7 0 10 -262144 -1 -1 0
1;
#X obj 13 178 metro;
#X floatatom 153 117 5 0 0 1 ms - -, f 5;
#X obj 153 183 / 100;
#X floatatom 153 227 5 0 0 1 35%_time_fraction - -, f 5;
#X obj 153 205 * 35;
#X obj 153 161 line;
#X msg 153 138 \$1 4000;
#X obj 153 14 inlet BPM;
#X obj 13 14 inlet toggle;
#X obj 200 306 outlet delay;
#X obj 13 306 s trigger1_1;
#X obj 106 308 s trigger2_1;
#X connect 0 0 1 0;
#X connect 1 0 17 0;
#X connect 1 1 2 0;
#X connect 2 0 18 0;
#X connect 3 0 4 0;
#X connect 4 0 5 0;
#X connect 4 1 5 1;
#X connect 5 0 8 0;
#X connect 6 0 7 0;
#X connect 7 0 0 0;
#X connect 8 0 13 0;
#X connect 9 0 11 0;
#X connect 10 0 2 1;
#X connect 10 0 16 0;
#X connect 11 0 10 0;
#X connect 12 0 7 1;
#X connect 12 0 9 0;
#X connect 13 0 12 0;
#X connect 14 0 3 0;
#X connect 15 0 6 0;
#X restore 205 249 pd master2;
#X floatatom 141 188 5 0 0 0 - - -, f 5;
#X obj 238 213 s delay_0;
#X obj 369 16 r trigger1_0;
#X obj 468 19 r trigger1_0;
#X obj 481 144 throw~ mix0;
#X obj 375 260 onebeat 63 5 0 0.65;
#X obj 552 260 murmur 0.3 50 0.5;
#X obj 692 261 onebeat 42 3 0.5 1;
#X obj 375 205 r trigger1_1;
#X obj 474 208 r trigger1_1;
#X obj 561 16 r trigger2_0;
#X obj 646 18 r delay_0;
#X obj 724 17 r trigger2_0;
#X obj 567 205 r trigger2_1;
#X obj 652 207 r delay_1;
#X obj 730 206 r trigger2_1;
#X obj 487 333 throw~ mix1;
#X obj 176 265 tgl 15 0 empty heart_toggle empty 17 7 0 10 -262144
-1 -1 0 1;
#X obj 206 280 s delay_1;
#X obj 127 301 loadbang;
#X msg 127 323 60;
#X text 132 14 v1.12;
#X connect 0 0 20 0;
#X connect 1 0 20 0;
#X connect 2 0 20 0;
#X connect 3 0 4 0;
#X connect 4 0 17 0;
#X connect 5 0 6 0;
#X connect 6 0 10 0;
#X connect 8 0 9 0;
#X connect 10 0 11 0;
#X connect 11 0 4 1;
#X connect 14 0 16 0;
#X connect 15 0 34 0;
#X connect 16 0 15 1;
#X connect 18 0 0 0;
#X connect 19 0 1 0;
#X connect 21 0 32 0;
#X connect 22 0 32 0;
#X connect 23 0 32 0;
#X connect 24 0 21 0;
#X connect 25 0 22 0;
#X connect 26 0 1 0;
#X connect 27 0 1 1;
#X connect 28 0 2 0;
#X connect 29 0 22 0;
#X connect 30 0 22 1;
#X connect 31 0 23 0;
#X connect 33 0 15 0;
#X connect 35 0 36 0;
#X connect 36 0 14 0;
#X coords 0 -1 1 1 170 210 1 10 10;
#X restore -8 -3 pd main;
